<?xml version="1.0" encoding="UTF-8" standalone="no"?>
<svg width="18px" height="18px" viewBox="0 0 18 18" version="1.1" xmlns="http://www.w3.org/2000/svg" xmlns:xlink="http://www.w3.org/1999/xlink">
    <!-- Generator: Sketch 46.1 (44463) - http://www.bohemiancoding.com/sketch -->
    <title>icon__info-small</title>
    <desc>Created with Sketch.</desc>
    <defs></defs>
    <g id="Symbols" stroke="none" stroke-width="1" fill="none" fill-rule="evenodd">
        <g id="icon__info-small" fill="#333333">
            <path d="M7.96771539,12.4615385 L6.92307692,12.4615385 L6.92307692,13.5 L11.0769231,13.5 L11.0769231,12.4615385 L10.0076026,12.4615385 L10.0384615,7.27954092 L9.69230769,7.27779105 L9.69230769,7.26923077 L6.92307692,7.26923077 L6.92307692,8.30769231 L7.99269593,8.30769231 L7.96771539,12.4615385 Z M9,18 C4.02943725,18 0,13.9705627 0,9 C0,4.02943725 4.02943725,0 9,0 C13.9705627,0 18,4.02943725 18,9 C18,13.9705627 13.9705627,18 9,18 Z M7.61538462,4.84615385 C7.61538462,5.61081886 8.23533499,6.23076923 9,6.23076923 C9.76466501,6.23076923 10.3846154,5.61081886 10.3846154,4.84615385 C10.3846154,4.08148883 9.76466501,3.46153846 9,3.46153846 C8.23533499,3.46153846 7.61538462,4.08148883 7.61538462,4.84615385 Z" id="Combined-Shape"></path>
        </g>
    </g>
</svg>