<?xml version="1.0" encoding="UTF-8" standalone="no"?>
<svg width="23px" height="23px" viewBox="0 0 23 23" version="1.1" xmlns="http://www.w3.org/2000/svg" xmlns:xlink="http://www.w3.org/1999/xlink">
    <!-- Generator: Sketch 46.1 (44463) - http://www.bohemiancoding.com/sketch -->
    <title>icon__help</title>
    <desc>Created with Sketch.</desc>
    <defs></defs>
    <g id="Symbols" stroke="none" stroke-width="1" fill="none" fill-rule="evenodd">
        <g id="icon__help">
            <circle id="Oval" fill="#7C746F" cx="11.5" cy="11.5" r="11.5"></circle>
            <path d="M11.2549296,5.5 C9.93661972,5.5 8.07746479,5.87183099 8.07746479,6.86901408 C8.07746479,7.22394366 8.66901408,8.25492958 9.14225352,8.25492958 C9.37887324,8.25492958 10.0549296,7.73098592 11.0352113,7.73098592 C11.8971831,7.73098592 12.2859155,8.08591549 12.2859155,8.67746479 C12.2859155,9.23521127 11.5253521,9.8943662 10.815493,10.7225352 C10.2239437,11.4323944 9.66619718,12.243662 9.66619718,13.2239437 C9.66619718,13.5788732 9.9028169,13.7140845 10.4943662,13.7140845 L10.8830986,13.7140845 C11.4408451,13.7140845 11.6774648,13.6126761 11.7788732,13.2577465 C12.0830986,11.6352113 14.9225352,11.0943662 14.9225352,8.5084507 C14.9225352,6.64929577 13.5197183,5.5 11.2549296,5.5 Z M10.9507042,14.8633803 L10.4098592,14.8633803 C9.7,14.8633803 9.39577465,15.0492958 9.39577465,15.4042254 L9.39577465,16.9591549 C9.39577465,17.3140845 9.7,17.5 10.4098592,17.5 L10.9507042,17.5 C11.6605634,17.5 11.9647887,17.3140845 11.9647887,16.9591549 L11.9647887,15.4042254 C11.9647887,15.0492958 11.6605634,14.8633803 10.9507042,14.8633803 Z" id="?" fill="#FFFFFF"></path>
        </g>
    </g>
</svg>