<?xml version="1.0" encoding="UTF-8" standalone="no"?>
<svg width="20px" height="10px" viewBox="0 0 20 10" version="1.1" xmlns="http://www.w3.org/2000/svg" xmlns:xlink="http://www.w3.org/1999/xlink">
    <!-- Generator: Sketch 46.2 (44496) - http://www.bohemiancoding.com/sketch -->
    <title>icon__white-arrow--down</title>
    <desc>Created with Sketch.</desc>
    <defs></defs>
    <g id="Symbols" stroke="none" stroke-width="1" fill="none" fill-rule="evenodd">
        <g id="icon__white-arrow--down" fill-rule="nonzero" fill="#FFFFFF">
            <g id="arrow" transform="translate(10.000000, 5.000000) rotate(90.000000) translate(-10.000000, -5.000000) translate(5.000000, -5.000000)">
                <path d="M2.85416667,0.615058324 L9.375,8.54718982 C9.73363185,8.94054879 9.95351296,9.44420012 10,9.97879109 C9.95126999,10.509655 9.73153922,11.0092337 9.375,11.3997879 L2.85416667,19.3425239 C2.59993856,19.7173593 2.19554679,19.9581545 1.75,20 C1.3032236,19.9571851 0.891264611,19.7360545 0.604166667,19.3849417 C0.278422893,19.1218467 0.0625727243,18.7429822 7.30896825e-16,18.3244963 C0.0322281372,17.9692701 0.170342767,17.6325593 0.395833333,17.359491 L5.94791667,9.93637328 L0.395833333,2.65111347 C0.153910834,2.35098319 0.014916873,1.9786156 0,1.59066808 C0.0352518307,1.1519043 0.265423227,0.753558897 0.625,0.509013786 C0.933937297,0.216662633 1.32982,0.0375428505 1.75,0 C2.19178312,0.0197879468 2.59959676,0.246953987 2.85416667,0.615058324 Z" id="Shape"></path>
            </g>
        </g>
    </g>
</svg>