<?xml version="1.0" encoding="UTF-8" standalone="no"?>
<svg width="12px" height="6px" viewBox="0 0 12 6" version="1.1" xmlns="http://www.w3.org/2000/svg" xmlns:xlink="http://www.w3.org/1999/xlink">
    <!-- Generator: Sketch 46.1 (44463) - http://www.bohemiancoding.com/sketch -->
    <title>icon__link-pointer-left-nav-open</title>
    <desc>Created with Sketch.</desc>
    <defs></defs>
    <g id="Symbols" stroke="none" stroke-width="1" fill="none" fill-rule="evenodd">
        <g id="icon__link-pointer-left-nav-open" fill="#333333">
            <path d="M4.05,-3 C3.69,-3 3,-2.54198473 3,-2.02290076 C3,-1.83969466 3.09,-1.6259542 3.24,-1.41221374 L6.57,2.98473282 L3.24,7.41221374 C3.09,7.6259542 3,7.80916031 3,7.99236641 C3,8.35877863 3.57,9 4.05,9 C4.29,9 4.5,8.84732824 4.71,8.60305344 L8.61,3.83969466 C8.88,3.50381679 9,3.25954198 9,2.98473282 C9,2.70992366 8.88,2.46564885 8.61,2.12977099 L4.71,-2.63358779 C4.5,-2.8778626 4.29,-3 4.05,-3 Z" id="›" transform="translate(6.000000, 3.000000) rotate(90.000000) translate(-6.000000, -3.000000) "></path>
        </g>
    </g>
</svg>