<?xml version="1.0" encoding="UTF-8" standalone="no"?>
<svg width="17px" height="17px" viewBox="0 0 17 17" version="1.1" xmlns="http://www.w3.org/2000/svg" xmlns:xlink="http://www.w3.org/1999/xlink">
    <!-- Generator: Sketch 46.1 (44463) - http://www.bohemiancoding.com/sketch -->
    <title>icon__search</title>
    <desc>Created with Sketch.</desc>
    <defs></defs>
    <g id="Symbols" stroke="none" stroke-width="1" fill="none" fill-rule="evenodd">
        <g id="icon__search" fill="#FFFFFF">
            <path d="M6.74013177,2.3788423 C9.14516938,2.3788423 11.1013935,4.33504361 11.1013935,6.74005317 C11.1013935,9.14506274 9.14516938,11.1012641 6.74013177,11.1012641 C4.33509416,11.1012641 2.37887004,9.14506274 2.37887004,6.74005317 C2.37887004,4.33504361 4.33509416,2.3788423 6.74013177,2.3788423 Z M12.2702116,10.5882271 C13.0306571,9.49633845 13.4802635,8.17132329 13.4802635,6.74005317 C13.4802635,3.01795793 10.4622704,0 6.74013177,0 C3.01799312,0 0,3.01795793 0,6.74005317 C0,10.4621484 3.01799312,13.4801063 6.74013177,13.4801063 C8.17141858,13.4801063 9.49644919,13.0305052 10.5883505,12.2700686 L14.9694362,16.6518961 C15.2017725,16.8842297 15.5062679,17 15.8107632,17 C16.1152586,17 16.419754,16.8842297 16.6520903,16.6518961 C17.1159699,16.1872289 17.1159699,15.4339288 16.6520903,14.9692616 L12.2702116,10.5882271 Z" id="Page-1"></path>
        </g>
    </g>
</svg>