<?xml version="1.0" encoding="utf-8"?>
<!-- Generator: Adobe Illustrator 18.1.0, SVG Export Plug-In . SVG Version: 6.00 Build 0)  -->
<!DOCTYPE svg PUBLIC "-//W3C//DTD SVG 1.1//EN" "http://www.w3.org/Graphics/SVG/1.1/DTD/svg11.dtd">
<svg version="1.1" id="Layer_1" xmlns="http://www.w3.org/2000/svg" xmlns:xlink="http://www.w3.org/1999/xlink" x="0px" y="0px"
	 viewBox="-25 356.1 544.6 128.8" enable-background="new -25 356.1 544.6 128.8" xml:space="preserve">
<g>
	<path fill="#3A302A" d="M258.3,416.6h0.4c1.2,0,1.8,0.4,1.8,1.1l-3.3,31.7c-0.1,0.7-0.8,1.1-2,1.1h-0.4c-1.2,0-1.8-0.4-1.8-1.1
		l3.3-31.7C256.3,416.9,257,416.6,258.3,416.6z"/>
	<path fill="#3A302A" d="M286.1,431.1l-1.4,14c0,1,0.2,1.5,0.6,1.7c0.4,0.2,0.7,0.2,1.2,0.2l1.3-0.2c0.2,0,0.3,0.2,0.3,0.5
		c0,0.4-0.1,0.8-0.2,1.5c-0.1,0.6-0.5,1.1-1.1,1.3c-0.6,0.3-1.2,0.4-1.8,0.4c-2.9,0-4.3-1.6-4.3-4.7c0-0.6,0.2-3,0.7-7.1
		c0.4-4.2,0.7-6.4,0.7-6.6c0-2.5-1.2-3.7-3.6-3.7c-1.3,0-2.7,0.6-4.1,1.8c-1.4,1.2-2.6,3.2-3.5,6l-1.4,13.2c-0.1,0.7-0.8,1.1-2,1.1
		h-0.2c-1.2,0-1.8-0.3-1.8-1c1.4-12.5,2.1-19.5,2.1-21l0-1.6c0-0.7,0.9-1.1,2.7-1.1c0.8,0,1.2,1.2,1.2,3.6c0,0.2,0,0.3,0,0.5
		c2.4-3.2,5.2-4.8,8.5-4.8C284,424.9,286.1,426.9,286.1,431.1z"/>
	<path fill="#3A302A" d="M314.8,447.1l1.3-0.2c0.2,0,0.3,0.2,0.3,0.5s-0.1,0.8-0.2,1.5c-0.1,0.6-0.5,1.1-1.1,1.3s-1.2,0.4-1.8,0.4
		c-2.9,0-4.3-1.6-4.3-4.7v-0.5c-1.9,3.5-4.4,5.2-7.7,5.2c-2,0-4-0.7-5.8-2c-1-0.7-1.7-1.8-2.3-3.2c-0.6-1.4-0.9-3.1-0.9-5.1
		c0-4.5,1.1-8.2,3.3-11c2.2-2.8,5.1-4.3,8.7-4.3c2.6,0,4.8,0.7,6.5,2.2l1.3-11.8c0.1-0.7,0.8-1.1,2-1.1h0.2c1.2,0,1.8,0.4,1.8,1.1
		c-2,19-3.1,28.8-3.1,29.5c0,0.7,0,1.2,0.1,1.5c0.1,0.3,0.3,0.5,0.5,0.6C314,447,314.4,447.1,314.8,447.1z M310.5,430.2
		c-1.5-1.2-3.3-1.8-5.2-1.8c-1.9,0-3.4,0.3-4.6,1c-1.1,0.6-2,1.5-2.6,2.7c-1.1,2.2-1.7,4.7-1.7,7.5c0,2.8,0.5,4.8,1.4,5.9
		c1,1.1,2.4,1.6,4.3,1.6c1.3,0,2.6-0.6,4-1.9c1.3-1.2,2.5-3.3,3.4-6.1L310.5,430.2z"/>
	<path fill="#3A302A" d="M326.8,414.2h0.2c1.2,0,1.8,0.4,1.8,1.1l-1.5,14.6c1.9-3.3,4.4-5,7.6-5c2,0,3.9,0.7,5.8,2
		c1,0.7,1.7,1.7,2.3,3.1c0.6,1.4,0.9,3.1,0.9,5.1c0,4.5-1.2,8.2-3.5,11.1c-2.3,2.9-5.4,4.3-9.2,4.3c-2.5,0-4.6-0.9-6.4-2.6
		c-0.4,1.6-1.1,2.4-2,2.4h-0.4c-0.8,0-1.2-0.4-1.2-1.1l3.6-34.1C324.9,414.5,325.6,414.2,326.8,414.2z M325.6,445.2
		c1.5,1.2,3.1,1.9,5,1.9s3.4-0.3,4.6-1c1.2-0.7,2.2-1.6,2.8-2.7c1.2-2.1,1.7-4.8,1.7-8c0-4.7-1.9-7-5.7-7c-1.3,0-2.6,0.6-4,1.8
		c-1.3,1.2-2.5,3.3-3.4,6.1l-0.7,6.4C325.8,443.5,325.7,444.3,325.6,445.2z"/>
	<path fill="#3A302A" d="M365.4,445.4c0.6-0.4,1-0.6,1.2-0.6c0.2,0,0.3,0.2,0.3,0.7s-0.1,1.2-0.2,2c-0.2,1-1.2,1.8-3,2.3
		c-1.8,0.5-3.4,0.8-4.9,0.8c-7.2,0-10.8-3.3-10.8-9.9c0-4.6,1.1-8.4,3.3-11.4s5.5-4.4,9.9-4.4c2.7,0,4.7,0.7,6.1,2
		c1.3,1.4,2,2.8,2,4.4s-0.4,2.9-1.1,4.1c-0.7,1.2-1.7,2.1-3,2.7c-2.5,1.2-5.4,1.9-8.9,1.9c-1.6,0-2.9-0.1-4.1-0.3v0.5
		c0,2.5,0.6,4.3,1.8,5.4c1.2,1,2.9,1.6,5.2,1.6S363.4,446.5,365.4,445.4z M360.7,428.3c-4.8,0-7.6,2.8-8.4,8.3h3.4
		c2.7,0,4.9-0.4,6.5-1.1c0.7-0.3,1.3-0.8,1.9-1.5c0.6-0.7,0.9-1.5,0.9-2.4s-0.4-1.7-1.2-2.4C363,428.6,362,428.3,360.7,428.3z"/>
	<path fill="#3A302A" d="M375.6,428.3l0-1.6c0-0.7,0.9-1.1,2.7-1.1c0.8,0,1.2,1.2,1.2,3.6c0,0.1,0,0.3,0,0.5
		c0.8-1.5,1.7-2.7,2.9-3.5c1.1-0.8,2.3-1.3,3.5-1.3c1.6,0,2.4,0.6,2.4,1.8c0,0.6-0.2,1.2-0.5,1.8c-0.3,0.6-0.6,0.9-0.9,0.9
		c-0.1,0-0.3-0.1-0.6-0.3c-0.4-0.2-0.8-0.3-1.2-0.3c-1.1,0-2.2,0.6-3.3,1.7c-1.1,1.2-2,3.1-2.8,5.9l-1.3,12.9
		c-0.1,0.7-0.8,1.1-2,1.1h-0.2c-1.2,0-1.8-0.3-1.8-1C374.9,436.9,375.6,429.8,375.6,428.3z"/>
	<path fill="#3A302A" d="M406.8,445.4c0.6-0.4,1-0.6,1.2-0.6c0.2,0,0.3,0.2,0.3,0.7s-0.1,1.2-0.2,2c-0.2,1-1.2,1.8-3,2.3
		c-1.8,0.5-3.4,0.8-4.9,0.8c-7.2,0-10.8-3.3-10.8-9.9c0-4.6,1.1-8.4,3.3-11.4s5.5-4.4,9.9-4.4c2.7,0,4.7,0.7,6.1,2
		c1.3,1.4,2,2.8,2,4.4s-0.4,2.9-1.1,4.1c-0.7,1.2-1.7,2.1-3,2.7c-2.5,1.2-5.4,1.9-8.9,1.9c-1.6,0-2.9-0.1-4.1-0.3v0.5
		c0,2.5,0.6,4.3,1.8,5.4c1.2,1,2.9,1.6,5.2,1.6S404.9,446.5,406.8,445.4z M402.1,428.3c-4.8,0-7.6,2.8-8.4,8.3h3.4
		c2.7,0,4.9-0.4,6.5-1.1c0.7-0.3,1.3-0.8,1.9-1.5c0.6-0.7,0.9-1.5,0.9-2.4s-0.4-1.7-1.2-2.4C404.5,428.6,403.4,428.3,402.1,428.3z"
		/>
	<path fill="#3A302A" d="M420.7,419.1h0.2c1.2,0,1.8,0.4,1.8,1.1l-0.5,5h4.1c0.5,0,0.8,0.3,0.8,0.9c0,0.6-0.2,1.2-0.7,1.8
		c-0.4,0.5-0.9,0.8-1.5,0.8h-3.1c-1.1,9.9-1.6,15.1-1.6,15.7c0,1.8,0.8,2.7,2.3,2.7c0.6,0,1.1-0.1,1.5-0.2c0.4-0.1,0.6-0.2,0.7-0.2
		c0.2,0,0.3,0.2,0.3,0.6c0,0.4-0.1,0.9-0.2,1.6c-0.3,1.1-1.3,1.6-3.3,1.6c-3.6,0-5.4-1.8-5.4-5.3l1.7-16.7h-2.4
		c-0.5,0-0.8-0.4-0.8-1.3c0-1.4,0.4-2.2,1.2-2.2h2.4l0.6-5C418.8,419.4,419.5,419.1,420.7,419.1z"/>
</g>
<polygon fill="#F08B21" points="201.5,479.5 189.4,484.9 203,363 212.8,371.5 "/>
<g>
	<g>
		<defs>
			<rect id="SVGID_1_" x="-25" y="356.1" width="164.4" height="104.4"/>
		</defs>
		<clipPath id="SVGID_2_">
			<use xlink:href="#SVGID_1_"  overflow="visible"/>
		</clipPath>
		<path clip-path="url(#SVGID_2_)" fill="#897F72" d="M39.4,356.1c2.9,0,5.3,2.5,5.3,5.6c0,3.1-2.4,5.6-5.3,5.6s-5.3-2.5-5.3-5.6
			C34.1,358.6,36.5,356.1,39.4,356.1"/>
	</g>
	<g>
		<defs>
			<rect id="SVGID_3_" x="-25" y="356.1" width="164.4" height="104.4"/>
		</defs>
		<clipPath id="SVGID_4_">
			<use xlink:href="#SVGID_3_"  overflow="visible"/>
		</clipPath>
		<path clip-path="url(#SVGID_4_)" fill="#897F72" d="M27.1,377.3c0,3.1-2.4,5.6-5.3,5.6s-5.3-2.5-5.3-5.6c0-3.1,2.4-5.6,5.3-5.6
			C24.7,371.6,27.1,374.2,27.1,377.3"/>
	</g>
	<g>
		<defs>
			<rect id="SVGID_5_" x="-25" y="356.1" width="164.4" height="104.4"/>
		</defs>
		<clipPath id="SVGID_6_">
			<use xlink:href="#SVGID_5_"  overflow="visible"/>
		</clipPath>
		<path clip-path="url(#SVGID_6_)" fill="#897F72" d="M44.8,375.7c0,3.2-2.4,5.7-5.4,5.7c-3,0-5.4-2.6-5.4-5.7
			c0-3.2,2.4-5.8,5.4-5.8C42.4,369.9,44.8,372.5,44.8,375.7"/>
	</g>
	<g>
		<defs>
			<rect id="SVGID_7_" x="-25" y="356.1" width="164.4" height="104.4"/>
		</defs>
		<clipPath id="SVGID_8_">
			<use xlink:href="#SVGID_7_"  overflow="visible"/>
		</clipPath>
		<path clip-path="url(#SVGID_8_)" fill="#897F72" d="M62.4,377.2c0,3.2-2.5,5.8-5.5,5.8c-3,0-5.5-2.6-5.5-5.8
			c0-3.2,2.4-5.8,5.5-5.8C60,371.4,62.4,374,62.4,377.2"/>
	</g>
	<g>
		<defs>
			<rect id="SVGID_9_" x="-25" y="356.1" width="164.4" height="104.4"/>
		</defs>
		<clipPath id="SVGID_10_">
			<use xlink:href="#SVGID_9_"  overflow="visible"/>
		</clipPath>
		<path clip-path="url(#SVGID_10_)" fill="#897F72" d="M44.8,389.2c0,3.2-2.4,5.8-5.4,5.8c-3,0-5.4-2.6-5.4-5.8
			c0-3.2,2.4-5.8,5.4-5.8C42.4,383.4,44.8,386,44.8,389.2"/>
	</g>
	<g>
		<defs>
			<rect id="SVGID_11_" x="-25" y="356.1" width="164.4" height="104.4"/>
		</defs>
		<clipPath id="SVGID_12_">
			<use xlink:href="#SVGID_11_"  overflow="visible"/>
		</clipPath>
		<path clip-path="url(#SVGID_12_)" fill="#897F72" d="M58.1,390c0,3.2-2.5,5.8-5.5,5.8c-3,0-5.5-2.6-5.5-5.8c0-3.2,2.5-5.8,5.5-5.8
			C55.6,384.1,58.1,386.8,58.1,390"/>
	</g>
	<g>
		<defs>
			<rect id="SVGID_13_" x="-25" y="356.1" width="164.4" height="104.4"/>
		</defs>
		<clipPath id="SVGID_14_">
			<use xlink:href="#SVGID_13_"  overflow="visible"/>
		</clipPath>
		<path clip-path="url(#SVGID_14_)" fill="#897F72" d="M26.2,384.4c2.9,0,5.3,2.5,5.3,5.6c0,3.1-2.4,5.6-5.3,5.6s-5.3-2.5-5.3-5.6
			C20.9,386.9,23.3,384.4,26.2,384.4"/>
	</g>
	<g>
		<defs>
			<rect id="SVGID_15_" x="-25" y="356.1" width="164.4" height="104.4"/>
		</defs>
		<clipPath id="SVGID_16_">
			<use xlink:href="#SVGID_15_"  overflow="visible"/>
		</clipPath>
		<path clip-path="url(#SVGID_16_)" fill="#3C332B" d="M-25,409.9c0-1.7,14.6-1.8,14.9-0.4c0,0,5.3,30.5,5.5,31.6h0.4
			c1.7-5.5,11.8-31.6,11.8-31.6c0.6-1.4,13.9-1.3,13.9,0.2c0,0.5-0.1,1.1-0.4,1.7L0.5,459.4c-0.6,1.4-14,1.4-14.3,0l-10.9-48.1
			C-24.9,410.6-25,410.1-25,409.9"/>
	</g>
	<g>
		<defs>
			<rect id="SVGID_17_" x="-25" y="356.1" width="164.4" height="104.4"/>
		</defs>
		<clipPath id="SVGID_18_">
			<use xlink:href="#SVGID_17_"  overflow="visible"/>
		</clipPath>
		<path clip-path="url(#SVGID_18_)" fill="#3C332B" d="M57.6,418.1l0.6-7.8c0.9-1.8,13.9-0.9,14,0.3c0,0.8-0.4,5.7-0.4,5.7
			c0-3.7,9.1-6.6,13.4-6.6c1.3,0,1.9-0.1,2.5,0.1c0.8,0.3-1,12.3-1.9,12.5c-1.7,0.5-3.1,0.4-5.9,1.1c-3.7,1-7.9,3.7-8.8,6.1
			l-2.9,29.4c-0.2,2.1-15.1,1.5-14.7,0.1C53.6,458.9,57.3,420.3,57.6,418.1"/>
	</g>
	<g>
		<defs>
			<rect id="SVGID_19_" x="-25" y="356.1" width="164.4" height="104.4"/>
		</defs>
		<clipPath id="SVGID_20_">
			<use xlink:href="#SVGID_19_"  overflow="visible"/>
		</clipPath>
		<path clip-path="url(#SVGID_20_)" fill="#3C332B" d="M113.8,387.8l-4.2,40.6l0.4,0.1l13.9-19.2c1-1.3,15.4-1.4,15.4-0.5
			c0,0.5-0.4,1.2-1.2,2.1l-15.8,20.9l13.5,25.7c0.3,0.7,0.8,1.7,0.5,2.1c-0.5,0.8-15.1,1.2-15.7-0.1l-11.4-23.2l-0.4,0.1l-2.3,22.3
			c-0.2,2.1-14.7,2.1-14.7,0l7.3-70.9C99.3,385.7,113.8,385.7,113.8,387.8"/>
	</g>
	<g>
		<defs>
			<rect id="SVGID_21_" x="-25" y="356.1" width="164.4" height="104.4"/>
		</defs>
		<clipPath id="SVGID_22_">
			<use xlink:href="#SVGID_21_"  overflow="visible"/>
		</clipPath>
		<path clip-path="url(#SVGID_22_)" fill="#3C332B" d="M45.7,410.5c0.2-2-14.5-2-14.7,0.1l-1.6,16l-3.3,32.1c0,2.1,14.5,2.1,14.7,0
			l2.3-22.3l0.8-8l0.7-7.4C45,417.8,45.3,414.3,45.7,410.5"/>
	</g>
</g>
</svg>
