<svg width="23" height="23" viewBox="0 0 23 23" xmlns="http://www.w3.org/2000/svg"><title>icon__help</title><g fill="none" fill-rule="evenodd"><circle fill="#7C746F" cx="11.5" cy="11.5" r="11.5"/><path d="M11.255 5.5c-1.318 0-3.178.372-3.178 1.369 0 .355.592 1.386 1.065 1.386.237 0 .913-.524 1.893-.524.862 0 1.25.355 1.25.946 0 .558-.76 1.217-1.47 2.046-.591.71-1.149 1.52-1.149 2.5 0 .356.237.491.828.491h.39c.557 0 .793-.101.895-.456.304-1.623 3.144-2.164 3.144-4.75 0-1.859-1.403-3.008-3.668-3.008zm-.304 9.363h-.541c-.71 0-1.014.186-1.014.541v1.555c0 .355.304.541 1.014.541h.54c.71 0 1.015-.186 1.015-.54v-1.556c0-.355-.304-.54-1.014-.54z" fill="#FFF"/></g></svg>