<svg width="12" height="12" viewBox="0 0 12 12" xmlns="http://www.w3.org/2000/svg"><title>icon__double-arrow</title><path d="M1.05 0C.69 0 0 .458 0 .977c0 .183.09.397.24.61l3.33 4.398-3.33 4.427c-.15.214-.24.397-.24.58C0 11.36.57 12 1.05 12c.24 0 .45-.153.66-.397l3.9-4.763c.27-.336.39-.58.39-.855s-.12-.52-.39-.855L1.71.366C1.5.122 1.29 0 1.05 0zm6 0C6.69 0 6 .458 6 .977c0 .183.09.397.24.61l3.33 4.398-3.33 4.427c-.15.214-.24.397-.24.58C6 11.36 6.57 12 7.05 12c.24 0 .45-.153.66-.397l3.9-4.763c.27-.336.39-.58.39-.855s-.12-.52-.39-.855L7.71.366C7.5.122 7.29 0 7.05 0z" fill="#FFF" fill-rule="evenodd"/></svg>