<svg xmlns="http://www.w3.org/2000/svg" xmlns:xlink="http://www.w3.org/1999/xlink" viewBox="-25 356.1 544.6 128.8"><path d="M258.3 416.6h.4c1.2 0 1.8.4 1.8 1.1l-3.3 31.7c-.1.7-.8 1.1-2 1.1h-.4c-1.2 0-1.8-.4-1.8-1.1l3.3-31.7c0-.8.7-1.1 2-1.1zm27.8 14.5l-1.4 14c0 1 .2 1.5.6 1.7.4.2.7.2 1.2.2l1.3-.2c.2 0 .3.2.3.5 0 .4-.1.8-.2 1.5-.1.6-.5 1.1-1.1 1.3-.6.3-1.2.4-1.8.4-2.9 0-4.3-1.6-4.3-4.7 0-.6.2-3 .7-7.1.4-4.2.7-6.4.7-6.6 0-2.5-1.2-3.7-3.6-3.7-1.3 0-2.7.6-4.1 1.8-1.4 1.2-2.6 3.2-3.5 6l-1.4 13.2c-.1.7-.8 1.1-2 1.1h-.2c-1.2 0-1.8-.3-1.8-1 1.4-12.5 2.1-19.5 2.1-21v-1.6c0-.7.9-1.1 2.7-1.1.8 0 1.2 1.2 1.2 3.6v.5c2.4-3.2 5.2-4.8 8.5-4.8 4-.2 6.1 1.8 6.1 6zm28.7 16l1.3-.2c.2 0 .3.2.3.5s-.1.8-.2 1.5c-.1.6-.5 1.1-1.1 1.3s-1.2.4-1.8.4c-2.9 0-4.3-1.6-4.3-4.7v-.5c-1.9 3.5-4.4 5.2-7.7 5.2-2 0-4-.7-5.8-2-1-.7-1.7-1.8-2.3-3.2-.6-1.4-.9-3.1-.9-5.1 0-4.5 1.1-8.2 3.3-11 2.2-2.8 5.1-4.3 8.7-4.3 2.6 0 4.8.7 6.5 2.2l1.3-11.8c.1-.7.8-1.1 2-1.1h.2c1.2 0 1.8.4 1.8 1.1-2 19-3.1 28.8-3.1 29.5 0 .7 0 1.2.1 1.5.1.3.3.5.5.6.4 0 .8.1 1.2.1zm-4.3-16.9c-1.5-1.2-3.3-1.8-5.2-1.8-1.9 0-3.4.3-4.6 1-1.1.6-2 1.5-2.6 2.7-1.1 2.2-1.7 4.7-1.7 7.5s.5 4.8 1.4 5.9c1 1.1 2.4 1.6 4.3 1.6 1.3 0 2.6-.6 4-1.9 1.3-1.2 2.5-3.3 3.4-6.1l1-8.9zm16.3-16h.2c1.2 0 1.8.4 1.8 1.1l-1.5 14.6c1.9-3.3 4.4-5 7.6-5 2 0 3.9.7 5.8 2 1 .7 1.7 1.7 2.3 3.1.6 1.4.9 3.1.9 5.1 0 4.5-1.2 8.2-3.5 11.1-2.3 2.9-5.4 4.3-9.2 4.3-2.5 0-4.6-.9-6.4-2.6-.4 1.6-1.1 2.4-2 2.4h-.4c-.8 0-1.2-.4-1.2-1.1l3.6-34.1c.1-.6.8-.9 2-.9zm-1.2 31c1.5 1.2 3.1 1.9 5 1.9s3.4-.3 4.6-1c1.2-.7 2.2-1.6 2.8-2.7 1.2-2.1 1.7-4.8 1.7-8 0-4.7-1.9-7-5.7-7-1.3 0-2.6.6-4 1.8-1.3 1.2-2.5 3.3-3.4 6.1l-.7 6.4c-.1.8-.2 1.6-.3 2.5zm39.8.2c.6-.4 1-.6 1.2-.6.2 0 .3.2.3.7s-.1 1.2-.2 2c-.2 1-1.2 1.8-3 2.3-1.8.5-3.4.8-4.9.8-7.2 0-10.8-3.3-10.8-9.9 0-4.6 1.1-8.4 3.3-11.4s5.5-4.4 9.9-4.4c2.7 0 4.7.7 6.1 2 1.3 1.4 2 2.8 2 4.4s-.4 2.9-1.1 4.1c-.7 1.2-1.7 2.1-3 2.7-2.5 1.2-5.4 1.9-8.9 1.9-1.6 0-2.9-.1-4.1-.3v.5c0 2.5.6 4.3 1.8 5.4 1.2 1 2.9 1.6 5.2 1.6s4.2-.7 6.2-1.8zm-4.7-17.1c-4.8 0-7.6 2.8-8.4 8.3h3.4c2.7 0 4.9-.4 6.5-1.1.7-.3 1.3-.8 1.9-1.5.6-.7.9-1.5.9-2.4s-.4-1.7-1.2-2.4c-.8-.6-1.8-.9-3.1-.9zm14.9 0v-1.6c0-.7.9-1.1 2.7-1.1.8 0 1.2 1.2 1.2 3.6v.5c.8-1.5 1.7-2.7 2.9-3.5 1.1-.8 2.3-1.3 3.5-1.3 1.6 0 2.4.6 2.4 1.8 0 .6-.2 1.2-.5 1.8-.3.6-.6.9-.9.9-.1 0-.3-.1-.6-.3-.4-.2-.8-.3-1.2-.3-1.1 0-2.2.6-3.3 1.7-1.1 1.2-2 3.1-2.8 5.9l-1.3 12.9c-.1.7-.8 1.1-2 1.1h-.2c-1.2 0-1.8-.3-1.8-1 1.2-12.5 1.9-19.6 1.9-21.1zm31.2 17.1c.6-.4 1-.6 1.2-.6.2 0 .3.2.3.7s-.1 1.2-.2 2c-.2 1-1.2 1.8-3 2.3-1.8.5-3.4.8-4.9.8-7.2 0-10.8-3.3-10.8-9.9 0-4.6 1.1-8.4 3.3-11.4s5.5-4.4 9.9-4.4c2.7 0 4.7.7 6.1 2 1.3 1.4 2 2.8 2 4.4s-.4 2.9-1.1 4.1c-.7 1.2-1.7 2.1-3 2.7-2.5 1.2-5.4 1.9-8.9 1.9-1.6 0-2.9-.1-4.1-.3v.5c0 2.5.6 4.3 1.8 5.4 1.2 1 2.9 1.6 5.2 1.6s4.3-.7 6.2-1.8zm-4.7-17.1c-4.8 0-7.6 2.8-8.4 8.3h3.4c2.7 0 4.9-.4 6.5-1.1.7-.3 1.3-.8 1.9-1.5.6-.7.9-1.5.9-2.4s-.4-1.7-1.2-2.4c-.7-.6-1.8-.9-3.1-.9zm18.6-9.2h.2c1.2 0 1.8.4 1.8 1.1l-.5 5h4.1c.5 0 .8.3.8.9 0 .6-.2 1.2-.7 1.8-.4.5-.9.8-1.5.8h-3.1c-1.1 9.9-1.6 15.1-1.6 15.7 0 1.8.8 2.7 2.3 2.7.6 0 1.1-.1 1.5-.2.4-.1.6-.2.7-.2.2 0 .3.2.3.6 0 .4-.1.9-.2 1.6-.3 1.1-1.3 1.6-3.3 1.6-3.6 0-5.4-1.8-5.4-5.3l1.7-16.7h-2.4c-.5 0-.8-.4-.8-1.3 0-1.4.4-2.2 1.2-2.2h2.4l.6-5c0-.6.7-.9 1.9-.9z" fill="#3A302A"/><path fill="#F08B21" d="M201.5 479.5l-12.1 5.4L203 363l9.8 8.5z"/><defs><path id="a" d="M-25 356.1h164.4v104.4H-25z"/></defs><clipPath id="b"><use xlink:href="#a" overflow="visible"/></clipPath><path clip-path="url(#b)" fill="#897F72" d="M39.4 356.1c2.9 0 5.3 2.5 5.3 5.6 0 3.1-2.4 5.6-5.3 5.6s-5.3-2.5-5.3-5.6c0-3.1 2.4-5.6 5.3-5.6"/><defs><path id="c" d="M-25 356.1h164.4v104.4H-25z"/></defs><clipPath id="d"><use xlink:href="#c" overflow="visible"/></clipPath><path clip-path="url(#d)" fill="#897F72" d="M27.1 377.3c0 3.1-2.4 5.6-5.3 5.6s-5.3-2.5-5.3-5.6c0-3.1 2.4-5.6 5.3-5.6 2.9-.1 5.3 2.5 5.3 5.6"/><defs><path id="e" d="M-25 356.1h164.4v104.4H-25z"/></defs><clipPath id="f"><use xlink:href="#e" overflow="visible"/></clipPath><path clip-path="url(#f)" fill="#897F72" d="M44.8 375.7c0 3.2-2.4 5.7-5.4 5.7-3 0-5.4-2.6-5.4-5.7 0-3.2 2.4-5.8 5.4-5.8 3 0 5.4 2.6 5.4 5.8"/><defs><path id="g" d="M-25 356.1h164.4v104.4H-25z"/></defs><clipPath id="h"><use xlink:href="#g" overflow="visible"/></clipPath><path clip-path="url(#h)" fill="#897F72" d="M62.4 377.2c0 3.2-2.5 5.8-5.5 5.8s-5.5-2.6-5.5-5.8c0-3.2 2.4-5.8 5.5-5.8s5.5 2.6 5.5 5.8"/><defs><path id="i" d="M-25 356.1h164.4v104.4H-25z"/></defs><clipPath id="j"><use xlink:href="#i" overflow="visible"/></clipPath><path clip-path="url(#j)" fill="#897F72" d="M44.8 389.2c0 3.2-2.4 5.8-5.4 5.8-3 0-5.4-2.6-5.4-5.8 0-3.2 2.4-5.8 5.4-5.8 3 0 5.4 2.6 5.4 5.8"/><defs><path id="k" d="M-25 356.1h164.4v104.4H-25z"/></defs><clipPath id="l"><use xlink:href="#k" overflow="visible"/></clipPath><path clip-path="url(#l)" fill="#897F72" d="M58.1 390c0 3.2-2.5 5.8-5.5 5.8s-5.5-2.6-5.5-5.8c0-3.2 2.5-5.8 5.5-5.8 3-.1 5.5 2.6 5.5 5.8"/><defs><path id="m" d="M-25 356.1h164.4v104.4H-25z"/></defs><clipPath id="n"><use xlink:href="#m" overflow="visible"/></clipPath><path clip-path="url(#n)" fill="#897F72" d="M26.2 384.4c2.9 0 5.3 2.5 5.3 5.6 0 3.1-2.4 5.6-5.3 5.6s-5.3-2.5-5.3-5.6c0-3.1 2.4-5.6 5.3-5.6"/><defs><path id="o" d="M-25 356.1h164.4v104.4H-25z"/></defs><clipPath id="p"><use xlink:href="#o" overflow="visible"/></clipPath><path clip-path="url(#p)" fill="#3C332B" d="M-25 409.9c0-1.7 14.6-1.8 14.9-.4 0 0 5.3 30.5 5.5 31.6h.4c1.7-5.5 11.8-31.6 11.8-31.6.6-1.4 13.9-1.3 13.9.2 0 .5-.1 1.1-.4 1.7l-20.6 48c-.6 1.4-14 1.4-14.3 0l-10.9-48.1c-.2-.7-.3-1.2-.3-1.4"/><defs><path id="q" d="M-25 356.1h164.4v104.4H-25z"/></defs><clipPath id="r"><use xlink:href="#q" overflow="visible"/></clipPath><path clip-path="url(#r)" fill="#3C332B" d="M57.6 418.1l.6-7.8c.9-1.8 13.9-.9 14 .3 0 .8-.4 5.7-.4 5.7 0-3.7 9.1-6.6 13.4-6.6 1.3 0 1.9-.1 2.5.1.8.3-1 12.3-1.9 12.5-1.7.5-3.1.4-5.9 1.1-3.7 1-7.9 3.7-8.8 6.1l-2.9 29.4c-.2 2.1-15.1 1.5-14.7.1.1-.1 3.8-38.7 4.1-40.9"/><defs><path id="s" d="M-25 356.1h164.4v104.4H-25z"/></defs><clipPath id="t"><use xlink:href="#s" overflow="visible"/></clipPath><path clip-path="url(#t)" fill="#3C332B" d="M113.8 387.8l-4.2 40.6.4.1 13.9-19.2c1-1.3 15.4-1.4 15.4-.5 0 .5-.4 1.2-1.2 2.1l-15.8 20.9 13.5 25.7c.3.7.8 1.7.5 2.1-.5.8-15.1 1.2-15.7-.1l-11.4-23.2-.4.1-2.3 22.3c-.2 2.1-14.7 2.1-14.7 0l7.3-70.9c.2-2.1 14.7-2.1 14.7 0"/><defs><path id="u" d="M-25 356.1h164.4v104.4H-25z"/></defs><clipPath id="v"><use xlink:href="#u" overflow="visible"/></clipPath><path clip-path="url(#v)" fill="#3C332B" d="M45.7 410.5c.2-2-14.5-2-14.7.1l-1.6 16-3.3 32.1c0 2.1 14.5 2.1 14.7 0l2.3-22.3.8-8 .7-7.4c.4-3.2.7-6.7 1.1-10.5"/></svg>